<?xml version="1.0" encoding="UTF-8" standalone="no"?>
<!-- Created with Inkscape (http://www.inkscape.org/) -->

<svg
   width="154.62225mm"
   height="59.121979mm"
   viewBox="0 0 154.62225 59.121979"
   version="1.1"
   id="svg5"
   inkscape:version="1.2.2 (b0a8486541, 2022-12-01)"
   sodipodi:docname="logo-full.svg"
   xmlns:inkscape="http://www.inkscape.org/namespaces/inkscape"
   xmlns:sodipodi="http://sodipodi.sourceforge.net/DTD/sodipodi-0.dtd"
   xmlns="http://www.w3.org/2000/svg"
   xmlns:svg="http://www.w3.org/2000/svg">
  <sodipodi:namedview
     id="namedview7"
     pagecolor="#ffffff"
     bordercolor="#000000"
     borderopacity="0.25"
     inkscape:showpageshadow="2"
     inkscape:pageopacity="0.0"
     inkscape:pagecheckerboard="0"
     inkscape:deskcolor="#d1d1d1"
     inkscape:document-units="mm"
     showgrid="false"
     inkscape:zoom="1.5001964"
     inkscape:cx="-25.663307"
     inkscape:cy="193.64131"
     inkscape:window-width="1452"
     inkscape:window-height="749"
     inkscape:window-x="468"
     inkscape:window-y="117"
     inkscape:window-maximized="0"
     inkscape:current-layer="layer1" />
  <defs
     id="defs2">
    <style
       id="style11">
      .y { fill:#FFC400; }
      .txt { fill:#FFC400; font-family: Arial, Helvetica, sans-serif; font-weight: 600; }
    </style>
    <mask
       id="cut"
       maskUnits="userSpaceOnUse">
      <rect
         x="0"
         y="0"
         width="900"
         height="300"
         fill="#ffffff"
         id="rect13" />
      <!-- buco interno (nero = trasparente) -->
      <polygon
         fill="#000000"
         points="208,131 179,185 118,185 88,131 118,81 179,81 "
         id="polygon15" />
    </mask>
  </defs>
  <g
     inkscape:label="Layer 1"
     inkscape:groupmode="layer"
     id="layer1"
     transform="translate(-27.102473,-173.3595)">
    <!-- Sfondo (opzionale: elimina questo rect se vuoi trasparenza) -->
    <!-- Simbolo (grid/proporzioni regolari, flat-top) -->
    <!-- Testo -->
    <text
       class="txt"
       x="104.00721"
       y="209.26141"
       font-size="23.5172px"
       letter-spacing="8"
       id="text28"
       style="stroke-width:0.195976">HIVE</text>
    <path
       style="fill:#fdc803;fill-opacity:1;stroke-width:0.0955073"
       d="m 79.643405,221.06593 -0.33185,0.57305 c -0.182533,0.31517 -0.426879,0.74495 -0.543016,0.95507 -0.116137,0.21011 -0.612259,1.0787 -1.10243,1.93029 -0.490172,0.85159 -0.9594,1.68032 -1.042749,1.8415 -0.15134,0.29265 -0.150538,0.29497 0.675456,1.7943 0.454901,0.82575 1.17388,2.13583 1.597693,2.9113 l 0.770591,1.41003 3.333987,-0.0252 3.333986,-0.025 0.91049,-1.62363 c 0.500831,-0.89299 1.2232,-2.19139 1.605152,-2.88536 l 0.694482,-1.26174 -1.239732,-2.22428 c -0.681846,-1.22333 -1.375954,-2.4709 -1.542481,-2.77232 l -0.302748,-0.54805 -0.764058,-0.0147 c -0.420232,-0.008 -1.954041,-0.0193 -3.408416,-0.025 z"
       id="path176" />
    <path
       style="fill:#fdc803;fill-opacity:1;stroke-width:0.0955073"
       d="m 59.009331,198.09438 -0.379976,0.64561 c -1.548612,2.63213 -3.471507,6.1694 -3.422779,6.29639 0.03143,0.0819 0.449638,0.82102 0.929333,1.64246 0.796712,1.36433 1.587541,2.72226 2.580005,4.43046 l 0.374378,0.64467 h 3.896773 3.896582 l 1.080244,-1.88626 c 0.594093,-1.03745 1.417423,-2.4756 1.829747,-3.19577 0.412315,-0.72017 0.796856,-1.41292 0.854523,-1.53949 0.116853,-0.25647 0.06442,-0.35858 -2.433382,-4.74384 l -1.278346,-2.24442 -3.963551,-0.025 z"
       id="path174" />
    <path
       style="fill:#fdc803;fill-opacity:1;stroke-width:0.0955073"
       d="m 76.279572,173.3595 -16.633,0.0242 -16.633,0.0241 -0.472503,0.81181 c -0.259846,0.4465 -0.695092,1.19862 -0.967192,1.67138 -1.689017,2.93452 -2.189342,3.80143 -3.059031,5.30065 -2.04864,3.53154 -2.865065,4.94369 -4.969739,8.59565 -2.750122,4.77196 -3.632542,6.30178 -5.189846,8.99634 -0.689009,1.19217 -1.252788,2.18817 -1.252788,2.21327 0,0.0608 1.250457,2.25659 2.88984,5.07438 0.733467,1.26069 1.744182,3.00132 2.246102,3.86805 1.952292,3.37129 3.642054,6.25803 4.891757,8.35688 2.85668,4.79772 3.541954,5.94566 4.104769,6.87652 0.349356,0.57782 0.817055,1.36218 1.039386,1.74301 l 0.404225,0.69243 15.157671,-9.6e-4 15.157489,-9.5e-4 0.728615,-1.26454 c 0.400758,-0.69549 1.591677,-2.74729 2.646592,-4.55954 l 1.918168,-3.295 1.96723,-0.0478 1.96722,-0.0478 0.742799,-1.28934 c 0.408475,-0.70915 1.269654,-2.1919 1.913879,-3.29501 0.644206,-1.1031 1.582928,-2.71479 2.086041,-3.58152 0.503123,-0.86672 1.266245,-2.17756 1.695817,-2.91297 0.429583,-0.7354 1.418484,-2.4509 2.197412,-3.81208 l 1.416192,-2.4748 -0.19026,-0.34267 c -0.235034,-0.42333 -2.002558,-3.48568 -3.808352,-6.5982 -0.746657,-1.28696 -2.16472,-3.73673 -3.151186,-5.44392 -0.986466,-1.70719 -2.675579,-4.62972 -3.753693,-6.49449 -1.078115,-1.86478 -2.430775,-4.2071 -3.005872,-5.20515 -0.575087,-0.99805 -1.279482,-2.21222 -1.56523,-2.69826 z m -7.83085,12.51201 0.370654,0.64467 c 0.203879,0.35457 1.168035,2.01998 2.142572,3.70091 0.974537,1.68092 2.57584,4.45302 3.55839,6.16021 0.98255,1.70719 1.981451,3.43974 2.219799,3.85014 0.504746,0.86913 0.544984,0.6624 -0.465598,2.39365 -0.371791,0.63692 -0.937117,1.6093 -1.25615,2.16085 -0.319022,0.55156 -0.995061,1.71197 -1.502367,2.5787 -0.888724,1.51835 -1.61731,2.7709 -3.539738,6.0856 l -0.89837,1.54901 -9.359711,0.001 -9.359712,9.5e-4 -2.005652,-3.40114 c -1.103109,-1.87062 -2.459436,-4.17992 -3.014076,-5.13165 -0.554639,-0.95173 -1.493017,-2.56095 -2.085114,-3.57611 l -1.07651,-1.84579 0.502903,-0.87617 c 0.276627,-0.48191 0.864493,-1.49935 1.306329,-2.26102 0.441826,-0.76167 1.21384,-2.094 1.715396,-2.96072 0.501557,-0.86673 1.263743,-2.17757 1.693946,-2.91297 0.430203,-0.73541 1.401779,-2.42159 2.158989,-3.74699 l 1.376833,-2.40969 8.758503,-0.002 z"
       id="path301" />
  </g>
</svg>
