<?xml version="1.0" encoding="UTF-8" standalone="no"?>
<!-- Created with Inkscape (http://www.inkscape.org/) -->

<svg
   width="180.54349mm"
   height="163.78535mm"
   viewBox="0 0 180.54349 163.78535"
   version="1.1"
   id="svg5"
   inkscape:version="1.2.2 (b0a8486541, 2022-12-01)"
   sodipodi:docname="logo.svg"
   xmlns:inkscape="http://www.inkscape.org/namespaces/inkscape"
   xmlns:sodipodi="http://sodipodi.sourceforge.net/DTD/sodipodi-0.dtd"
   xmlns="http://www.w3.org/2000/svg"
   xmlns:svg="http://www.w3.org/2000/svg">
  <sodipodi:namedview
     id="namedview7"
     pagecolor="#ffffff"
     bordercolor="#000000"
     borderopacity="0.25"
     inkscape:showpageshadow="2"
     inkscape:pageopacity="0.0"
     inkscape:pagecheckerboard="0"
     inkscape:deskcolor="#d1d1d1"
     inkscape:document-units="mm"
     showgrid="false"
     showguides="false"
     inkscape:zoom="0.7500982"
     inkscape:cx="312.62573"
     inkscape:cy="385.94947"
     inkscape:window-width="1854"
     inkscape:window-height="1011"
     inkscape:window-x="66"
     inkscape:window-y="32"
     inkscape:window-maximized="1"
     inkscape:current-layer="layer1" />
  <defs
     id="defs2" />
  <g
     inkscape:label="Layer 1"
     inkscape:groupmode="layer"
     id="layer1"
     transform="translate(-23.02696,-47.143631)">
    <path
       style="fill:#fdc803;fill-opacity:1;stroke-width:0.264583"
       d="m 168.58087,179.30455 -0.91933,1.5875 c -0.50567,0.87312 -1.18258,2.06375 -1.50431,2.64584 -0.32173,0.58208 -1.69614,2.98833 -3.05406,5.34747 -1.35792,2.35916 -2.65782,4.65499 -2.88872,5.1015 -0.41926,0.81074 -0.41704,0.81715 1.87121,4.97076 1.26021,2.28756 3.252,5.91688 4.42608,8.06514 l 2.13477,3.90622 9.23613,-0.0698 9.23612,-0.0692 2.52233,-4.49792 c 1.38745,-2.47385 3.38862,-6.0708 4.44675,-7.99331 l 1.92391,-3.49539 -3.43442,-6.1619 c -1.88891,-3.389 -3.8118,-6.84514 -4.27313,-7.68015 l -0.8387,-1.51826 -2.11667,-0.0408 c -1.16416,-0.0224 -5.41326,-0.0536 -9.44231,-0.0692 z"
       id="path171" />
    <path
       style="fill:#fdc803;fill-opacity:1;stroke-width:0.264583"
       d="m 111.99048,115.66658 -1.05265,1.78852 c -4.29011,7.29178 -9.6171,17.09106 -9.48211,17.44286 0.0871,0.22687 1.24564,2.27447 2.57453,4.55011 2.20713,3.7796 4.39796,7.54146 7.14738,12.27367 l 1.03714,1.78594 h 10.79521 10.79468 l 2.9926,-5.22552 c 1.64581,-2.87403 3.92668,-6.85812 5.06894,-8.85321 1.14223,-1.99509 2.20752,-3.9142 2.36728,-4.26485 0.32372,-0.71048 0.17846,-0.99337 -6.74119,-13.14184 l -3.54139,-6.21771 -10.98021,-0.0692 z"
       id="path169" />
    <path
       style="fill:#fdc803;fill-opacity:1;stroke-width:0.264583"
       d="m 159.26206,47.143631 -46.07833,0.06718 -46.078324,0.06666 -1.308973,2.248958 c -0.719852,1.236922 -1.925611,3.320521 -2.679409,4.630209 -4.679077,8.129491 -6.065123,10.53109 -8.474419,14.684374 -5.675338,9.783408 -7.937076,13.695473 -13.767646,23.8125 -7.618651,13.219738 -10.063215,17.457798 -14.377407,24.922508 -1.908757,3.30266 -3.470592,6.06189 -3.470592,6.13141 0,0.1685 3.464137,6.25143 8.005711,14.05754 2.03192,3.49249 4.8319,8.31454 6.222365,10.71563 5.408427,9.33949 10.089567,17.33661 13.551614,23.15104 7.913846,13.29109 9.812258,16.47124 11.371421,19.05 0.967819,1.60072 2.263484,3.77362 2.879407,4.82864 l 1.119823,1.91823 41.991229,-0.003 41.99072,-0.003 2.01848,-3.50315 c 1.11022,-1.92671 4.40941,-7.61081 7.33184,-12.63127 l 5.31389,-9.12812 5.44981,-0.13229 5.44978,-0.13229 2.05777,-3.57188 c 1.1316,-1.96453 3.51732,-6.07219 5.30202,-9.12812 1.78464,-3.05594 4.38517,-7.52079 5.77895,-9.92188 1.39379,-2.40109 3.50787,-6.0325 4.69791,-8.06979 1.19007,-2.03729 3.92962,-6.78972 6.08748,-10.5606 l 3.92327,-6.85591 -0.52708,-0.9493 c -0.65111,-1.17274 -5.54767,-9.65636 -10.55026,-18.27898 -2.06846,-3.56526 -5.99691,-10.351836 -8.72971,-15.081253 -2.7328,-4.729422 -7.41215,-12.825687 -10.39884,-17.991666 -2.9867,-5.165979 -6.73396,-11.654901 -8.32715,-14.419792 -1.59317,-2.76489 -3.54455,-6.128519 -4.33615,-7.474997 z m -21.69377,34.661966 1.02682,1.785937 c 0.5648,0.982261 3.2358,5.595943 5.93555,10.252605 2.69976,4.656656 7.13584,12.336201 9.8578,17.065621 2.72195,4.72942 5.4892,9.52909 6.1495,10.66602 1.39829,2.40774 1.50976,1.83504 -1.28985,6.63112 -1.02997,1.76445 -2.59609,4.45823 -3.4799,5.9862 -0.88379,1.52796 -2.75662,4.74266 -4.16201,7.14375 -2.46202,4.20629 -4.48042,7.6762 -9.80612,16.85892 l -2.48875,4.29121 -25.92916,0.003 -25.929168,0.003 -5.55625,-9.42217 c -3.055937,-5.18217 -6.813365,-11.57961 -8.349879,-14.21618 -1.536515,-2.63658 -4.136099,-7.09461 -5.776384,-9.90689 l -2.982251,-5.11338 1.39319,-2.42725 c 0.76634,-1.33505 2.394903,-4.15365 3.618918,-6.2637 1.223989,-2.11005 3.362696,-5.80099 4.752155,-8.20208 1.389459,-2.40109 3.50094,-6.0325 4.692729,-8.06979 1.191789,-2.037292 3.883343,-6.708505 5.981039,-10.380244 l 3.814233,-6.675562 24.263638,-0.0052 z"
       id="path301" />
  </g>
</svg>
