<svg xmlns="http://www.w3.org/2000/svg" width="360" height="240" viewBox="0 0 360 240">
  <defs>
    <linearGradient id="bg" x1="0" y1="0" x2="1" y2="1">
      <stop offset="0%" stop-color="#1f2d3d"/>
      <stop offset="100%" stop-color="#0f1724"/>
    </linearGradient>
  </defs>
  <rect width="360" height="240" fill="url(#bg)"/>
  <rect x="16" y="16" width="100" height="208" rx="8" fill="#182230" stroke="#2f3f56"/>
  <rect x="30" y="36" width="72" height="12" rx="3" fill="#5e748f"/>
  <rect x="30" y="60" width="60" height="8" rx="2" fill="#42566f"/>
  <rect x="30" y="76" width="52" height="8" rx="2" fill="#42566f"/>
  <rect x="30" y="110" width="72" height="72" rx="6" fill="#0f1a28" stroke="#30435d"/>
  <circle cx="66" cy="146" r="18" fill="#22c55e"/>
  <path d="M186 74l28 12-6 28-30 10-20-18 8-24z" fill="#2dd4bf" opacity=".85"/>
  <path d="M236 104l30 14-7 30-33 11-22-19 9-26z" fill="#60a5fa" opacity=".85"/>
  <path d="M188 142l28 12-6 28-30 10-20-18 8-24z" fill="#f59e0b" opacity=".85"/>
  <rect x="156" y="186" width="176" height="22" rx="11" fill="#111a28" stroke="#2f4057"/>
  <rect x="164" y="192" width="78" height="10" rx="5" fill="#22c55e"/>
  <text x="252" y="200" font-family="Arial, sans-serif" font-size="10" fill="#9fb3ca">READ MODE</text>
</svg>
