<svg xmlns="http://www.w3.org/2000/svg" width="360" height="240" viewBox="0 0 360 240">
  <defs>
    <linearGradient id="bg" x1="0" y1="0" x2="1" y2="1">
      <stop offset="0%" stop-color="#202f3f"/>
      <stop offset="100%" stop-color="#111927"/>
    </linearGradient>
  </defs>
  <rect width="360" height="240" fill="url(#bg)"/>
  <rect x="16" y="16" width="120" height="208" rx="8" fill="#182230" stroke="#2f3f56"/>
  <rect x="30" y="36" width="80" height="12" rx="3" fill="#5e748f"/>
  <rect x="30" y="62" width="92" height="16" rx="4" fill="#2f3f56"/>
  <rect x="30" y="84" width="92" height="16" rx="4" fill="#2f3f56"/>
  <rect x="30" y="106" width="92" height="16" rx="4" fill="#2f3f56"/>
  <rect x="30" y="136" width="92" height="74" rx="6" fill="#0f1a28" stroke="#30435d"/>
  <path d="M200 68l32 13-7 31-35 11-23-20 9-27z" fill="#22d3ee" opacity=".85"/>
  <path d="M254 104l34 14-8 32-36 12-24-20 10-29z" fill="#a78bfa" opacity=".85"/>
  <path d="M196 146l32 13-7 31-35 11-23-20 9-27z" fill="#f97316" opacity=".85"/>
  <rect x="156" y="186" width="176" height="22" rx="11" fill="#111a28" stroke="#2f4057"/>
  <rect x="164" y="192" width="78" height="10" rx="5" fill="#a855f7"/>
  <text x="251" y="200" font-family="Arial, sans-serif" font-size="10" fill="#9fb3ca">EDIT MODE</text>
  <g transform="translate(286 22)">
    <rect x="0" y="0" width="44" height="44" rx="8" fill="#111a28" stroke="#2f4057"/>
    <path d="M10 30l4-1 16-16-3-3-16 16z" fill="#e5e7eb"/>
    <path d="M24 9l3 3 2-2c1-1 1-2 0-3l-1-1c-1-1-2-1-3 0z" fill="#f59e0b"/>
  </g>
</svg>
